<svg width="90" height="18" viewBox="0 0 90 18" fill="none" xmlns="http://www.w3.org/2000/svg">
<path d="M11.7362 1.43876C11.0315 1.09006 10.2322 0.935385 9.47649 0.691406H6.9572C6.18839 0.942826 5.37227 1.0991 4.66021 1.46268C2.24287 2.69586 0.684737 4.62802 0.198116 7.36281C0.141887 7.67801 0.0667396 7.99003 0 8.30364V9.52141C0.0683161 9.92006 0.095117 10.3315 0.210203 10.7147C0.447208 11.4849 0.735712 12.2397 0.998466 13.0004L1.16137 12.9504C1.05627 12.0228 1.00372 11.1049 1.57547 10.2852C1.62382 10.2156 1.61541 10.0838 1.59334 9.99022C1.29065 8.69405 1.2645 7.34752 1.51662 6.04033C1.74889 4.81299 2.27913 3.73396 3.3559 3.02116C5.43638 1.64287 7.65771 1.85708 10.0015 2.44231C7.68451 3.85675 7.60253 6.09401 7.66296 8.40676C6.97034 8.40676 6.33395 8.37859 5.70124 8.41314C4.51832 8.47692 3.47046 8.81711 2.57341 9.69256C1.26542 10.9683 1.23494 13.634 2.59338 14.9049C4.50991 16.6951 6.78904 17.41 9.39819 17.038C11.5454 16.7307 13.2775 15.7298 14.6333 14.0268C16.1631 12.1047 16.7038 9.89774 16.3023 7.5228C15.8325 4.7423 14.2576 2.68629 11.7362 1.43876ZM9.47649 5.40141C9.84067 4.45101 10.5832 3.78393 11.6794 3.81369C12.2806 3.83017 13.3726 4.64503 13.5445 5.32965C13.9123 6.79671 13.0867 7.89222 11.5806 8.18989C11.0315 8.2962 10.4555 8.26909 9.89164 8.30417C9.68144 8.31746 9.46703 8.33394 9.18694 8.3536C9.15698 7.36387 9.10601 6.3651 9.47544 5.40141H9.47649ZM5.20201 14.4068C4.36487 14.3202 3.56505 13.7078 3.28285 12.7787C2.92025 11.5865 3.70326 10.3198 5.06958 10.0455C5.89252 9.8802 6.74753 9.87647 7.64825 9.79462C7.6803 10.88 7.70921 11.873 7.36552 12.8441C7.11486 13.5526 6.098 14.4998 5.20201 14.4068ZM15.0054 10.7195C14.936 12.1132 14.6207 13.4426 13.5155 14.4451C12.8181 15.0895 11.9332 15.4882 10.9931 15.5815C9.82595 15.6932 8.64041 15.607 7.46222 15.6001C7.40967 15.6001 7.35291 15.5379 7.26778 15.4859C9.19061 14.0507 9.22898 11.9713 9.16539 9.82226C9.71402 9.82226 10.2127 9.81694 10.7109 9.82226C12.5528 9.84405 13.864 9.25669 14.875 7.87415C14.9255 8.82349 15.05 9.77601 15.0054 10.7195Z" fill="#153280"/>
<path d="M56.6184 6.70329C55.868 6.67246 55.1086 6.86647 54.3887 6.95471V1.42188L50.2188 3.39709C50.4699 3.4242 50.6985 3.36839 50.9298 3.33171C51.7096 3.20733 51.8231 3.3062 51.8231 4.0865C51.8231 7.19603 51.8231 10.3054 51.8231 13.4146C51.8231 14.0221 51.7553 14.584 50.9765 14.8641C51.2283 14.8917 51.357 14.8907 51.4779 14.9215C53.2588 15.368 55.0597 15.5822 56.8717 15.192C58.8003 14.7769 60.2654 13.7643 60.844 11.7498C61.1646 10.6335 61.0059 9.55396 60.401 8.5924C59.5381 7.21464 58.135 6.76601 56.6184 6.70329ZM58.2832 13.4539C57.9774 14.635 56.8885 15.292 55.7214 15.0326C55.5637 14.9975 55.3913 14.9948 55.241 14.9374C54.4297 14.6265 54.3414 14.4883 54.3414 13.6054V7.35177C55.9379 6.59432 57.3652 7.55163 57.9479 9.06706C58.4955 10.4889 58.6753 11.9475 58.2843 13.4555L58.2832 13.4539Z" fill="#153280"/>
<path d="M30.0788 4.229C30.1639 4.56334 30.2364 4.9115 30.2417 5.25435C30.2575 7.0616 30.2743 8.87257 30.2349 10.6803C30.2212 11.3012 30.1382 11.9523 29.9274 12.5306C29.2227 14.4575 26.9452 15.3383 25.139 14.5059C23.82 13.8972 23.4574 12.6864 23.4138 11.4346C23.3234 8.96984 23.3764 6.49922 23.4054 4.03127C23.408 3.80855 23.6266 3.53215 23.8216 3.38278C24.0318 3.22332 24.3313 3.18133 24.5925 3.08831L24.5746 3.03516H19.3789C19.5366 3.11914 19.6038 3.16592 19.6769 3.18984C20.6685 3.50876 20.659 3.50876 20.6711 4.53092C20.6985 6.90745 20.6522 9.2893 20.7994 11.6589C20.8976 13.2477 21.8551 14.3756 23.3328 14.9938C24.4488 15.474 25.6775 15.6203 26.8732 15.4153C28.065 15.2144 29.0225 14.6605 29.732 13.6958C30.3799 12.8134 30.6337 11.7822 30.6437 10.7021C30.661 8.74128 30.6332 6.77988 30.6621 4.81902C30.6674 4.43843 30.7672 4.00948 30.9648 3.6948C31.1477 3.40617 31.5239 3.2414 31.7714 3.05695H28.8549C29.4739 3.23449 29.9154 3.59115 30.0788 4.229Z" fill="#153280"/>
<path d="M44.9115 6.66211C44.6287 6.69507 44.2456 6.71526 43.8741 6.78702C42.5509 7.05279 41.4662 7.67736 40.8346 8.9318C40.3574 9.87901 40.2276 10.8735 40.4241 11.9286C40.6191 12.9731 41.0637 13.873 41.9292 14.4747C43.4274 15.5166 45.0954 15.6622 46.8001 15.1232C48.3966 14.6182 49.3473 13.5164 49.6142 11.8128C49.8423 10.3542 49.5459 9.06734 48.5322 7.99469C47.5795 6.99167 46.3303 6.72589 44.9115 6.66211ZM47.1859 13.6567C47.0634 14.2866 46.8059 14.8633 46.1532 15.0536C45.5132 15.2396 44.9083 15.044 44.4075 14.588C43.5299 13.7906 43.2099 12.7047 42.9618 11.6028C42.8194 10.9729 42.7768 10.3207 42.6833 9.63609C42.7658 9.15452 42.841 8.64796 42.9392 8.14777C43.2099 6.75194 44.6955 6.70357 45.593 7.46102C46.4097 8.15203 46.7313 9.1088 46.9799 10.0964C47.2752 11.2647 47.4218 12.4522 47.1859 13.6567Z" fill="#153280"/>
<path d="M67.8115 6.75091C66.1635 6.53829 64.6774 6.83542 63.4634 8.02289C62.8218 8.65064 62.5102 9.45274 62.3867 10.3654C62.1964 11.7724 62.4918 13.0098 63.4477 14.0485C64.4036 15.0871 65.6637 15.3609 66.7873 15.4071C68.2061 15.4023 69.3418 15.1217 70.2672 14.3249C71.0554 13.6472 71.4895 12.7563 71.6235 11.6943C71.7938 10.3489 71.5237 9.14286 70.6398 8.12389C69.8999 7.27342 68.9182 6.89496 67.8115 6.75091ZM69.3066 12.4719C69.2593 12.9025 69.254 13.3431 69.1547 13.7609C69.017 14.3376 68.7558 14.8915 68.132 15.0589C67.5083 15.2264 66.9139 15.052 66.422 14.6183C65.6863 13.9677 65.3463 13.0933 65.0888 12.1732C64.7436 10.9389 64.5954 9.69194 64.8329 8.41942C64.9511 7.78689 65.1966 7.20378 65.8682 7.02465C66.5114 6.85297 67.0999 7.05708 67.6186 7.49454C68.286 8.05744 68.6223 8.82818 68.841 9.62071C69.0953 10.5419 69.1983 11.5056 69.3665 12.4512L69.3066 12.4719Z" fill="#153280"/>
<path d="M88.3686 8.00555C87.6376 7.22258 86.6906 6.88346 85.6422 6.74792C84.0557 6.54274 82.6064 6.82074 81.403 7.92688C80.7003 8.57324 80.3556 9.4152 80.2253 10.3794C80.0408 11.7465 80.3241 12.9638 81.2322 13.9875C82.1902 15.0682 83.4824 15.3695 84.8056 15.4137C86.0474 15.3903 87.1704 15.1319 88.0848 14.3474C88.8731 13.6718 89.3155 12.7958 89.4579 11.7274C89.6466 10.2997 89.3465 9.05375 88.3686 8.00555ZM87.0112 13.6654C86.8919 14.2974 86.6228 14.8731 85.9728 15.0581C85.3353 15.2393 84.7278 15.0432 84.227 14.5834C83.3531 13.7808 83.0347 12.6975 82.7871 11.5956C82.6458 10.9657 82.6022 10.3135 82.5244 9.74901C82.5811 9.22757 82.5985 8.79223 82.682 8.367C82.8034 7.75838 83.062 7.19335 83.712 7.02219C84.3363 6.85741 84.9249 7.03708 85.4236 7.46391C86.1767 8.10867 86.5041 8.98784 86.7531 9.909C87.0879 11.1459 87.2524 12.3929 87.0112 13.6654Z" fill="#153280"/>
<path d="M38.9086 6.6958C37.6999 6.77979 36.8365 7.41764 36.3404 8.58703L36.1775 8.46372C36.2038 7.87423 36.2301 7.28475 36.2553 6.72132C35.641 6.75959 35.064 6.79148 34.4875 6.83347C33.921 6.8744 33.355 6.92543 32.7891 6.97221C33.6646 7.13167 33.6766 7.14442 33.6766 8.00499V15.2664H36.8339C36.3115 14.788 36.1944 14.5222 36.1938 13.8844C36.1938 12.6847 36.136 11.4813 36.2175 10.2874C36.2595 9.665 36.4986 9.03831 36.7482 8.45681C36.8407 8.24419 37.2391 8.00446 37.4566 8.03901C37.6989 8.07782 38.0016 8.3792 38.0841 8.63062C38.2092 9.01174 38.1666 9.44813 38.195 9.86114C38.1713 9.86114 38.1981 9.86805 38.2034 9.86114C38.7935 8.88895 39.3826 7.91623 40.009 6.88131C39.6249 6.80955 39.2602 6.67348 38.9086 6.6958Z" fill="#153280"/>
<path d="M77.6518 7.00152C77.0585 7.40337 76.563 7.95085 76.0033 8.45263C76.0291 7.86793 76.0559 7.28324 76.0806 6.71183L72.5859 6.96006C73.5029 7.17587 73.503 7.17586 73.503 8.11457C73.503 10.1924 73.5061 12.2702 73.4993 14.348C73.4993 14.6536 73.4467 14.9593 73.4173 15.2846H76.6928C76.1468 14.7971 76.0212 14.5308 76.0207 13.9243C76.0207 12.7252 75.965 11.5218 76.0433 10.3279C76.0842 9.70389 76.306 9.07348 76.5562 8.49197C76.6539 8.2634 77.0554 8.01783 77.2919 8.04016C77.522 8.06195 77.8268 8.3846 77.9093 8.63761C78.0328 9.01607 77.9903 9.44981 78.0202 9.88993L79.8127 6.90212C79.0723 6.64485 78.3129 6.55396 77.6518 7.00152Z" fill="#153280"/>
</svg>
