<svg width="1273" height="371" viewBox="0 0 1273 371" fill="none" xmlns="http://www.w3.org/2000/svg">
<g style="mix-blend-mode:lighten">
<path d="M1088.68 0.875697H1088.31C999.373 0.875697 924.939 64.679 907.945 149.183C890.951 64.679 816.517 0.875697 727.577 0.875697C626.09 0.875697 543.503 83.8892 543.503 185.847H444.398C444.398 230.493 408.24 266.838 363.823 266.838C319.406 266.838 283.248 230.493 283.248 185.847C283.248 141.2 319.406 104.855 363.823 104.855V0.875697C276.683 0.875697 203.625 62.0183 184.62 143.861L184.355 1.46105L132.95 1.24819C132.95 1.24819 39.7219 0.822483 0.28125 0.875697L0.493012 104.855C19.9751 104.855 53.0099 104.855 81.0683 105.015L81.2272 185.74C81.2272 207.398 72.9155 227.726 57.7216 243.052C42.5277 258.377 22.3045 266.838 0.810654 266.891L1.02242 370.871C50.2041 370.765 96.3681 351.448 131.044 316.433C158.52 288.709 176.096 253.801 182.237 215.966C196.584 303.715 272.501 370.871 363.77 370.871C455.04 370.871 532.015 302.811 545.673 214.263C559.279 302.864 635.672 370.871 727.524 370.871V266.891C683.107 266.891 646.949 230.546 646.949 185.9C646.949 141.254 683.107 104.909 727.524 104.909C771.941 104.909 808.099 141.254 808.099 185.9H904.239C904.239 287.751 986.561 370.658 1087.89 370.871C1091.49 370.871 1095.51 370.871 1099.85 370.871C1143.42 370.871 1220.51 370.552 1220.51 370.552L1271.91 370.339L1272.28 186.273C1272.49 84.2617 1190.12 1.08855 1088.63 0.875697H1088.68ZM1168.73 266.732C1140.67 266.838 1107.74 266.891 1088.1 266.891C1043.68 266.785 1007.58 230.387 1007.68 185.74C1007.79 141.147 1043.9 104.909 1088.26 104.909H1088.42C1132.84 105.015 1168.94 141.413 1168.84 186.06L1168.68 266.785L1168.73 266.732Z" fill="white"/>
</g>
</svg>
