<svg xmlns="http://www.w3.org/2000/svg" viewBox="0 0 425.09 69.75"><defs><style>.cls-1{fill:#fff;}</style></defs><g id="Layer_2" data-name="Layer 2"><g id="Calque_1" data-name="Calque 1"><path class="cls-1" d="M205.59,0h-.07a34.82,34.82,0,0,0-34.07,27.87,34.77,34.77,0,0,0-68.84,6.89H83.89A15.22,15.22,0,1,1,68.67,19.54V0A34.81,34.81,0,0,0,34.82,26.87l0-26.76-9.71,0S7.45,0,0,0L0,19.54c3.69,0,9.92,0,15.22,0l0,15.16a15.11,15.11,0,0,1-4.43,10.78A15.14,15.14,0,0,1,.1,50l0,19.54A34.56,34.56,0,0,0,24.71,59.3a34.5,34.5,0,0,0,9.66-18.88A34.76,34.76,0,0,0,103,40.1a34.83,34.83,0,0,0,34.36,29.43V50A15.23,15.23,0,1,1,152.6,34.76h18.16a34.81,34.81,0,0,0,34.69,34.77h2.26c8.24,0,22.8-.06,22.8-.06l9.71,0,.07-34.58A34.81,34.81,0,0,0,205.59,0Zm15.13,50-15.23,0a15.23,15.23,0,0,1,0-30.45h0a15.25,15.25,0,0,1,15.19,15.25Z"/><path class="cls-1" d="M264,14.15a4.05,4.05,0,0,0,.34-1.62V.34h-1.15V12.53a3,3,0,0,1-1,2.22,3.74,3.74,0,0,1-2.35,1.08V17a5,5,0,0,0,3.18-1.4A4.6,4.6,0,0,0,264,14.15Z"/><path class="cls-1" d="M278.07,14.33l-1-.55a5.46,5.46,0,0,1-1.82,1.57,4.9,4.9,0,0,1-2.38.58,4.83,4.83,0,0,1-3.3-1.25,5.71,5.71,0,0,1-1.82-3.32h11.42l0-.4a7.17,7.17,0,0,0-1.87-4.65,6,6,0,0,0-2-1.35,6.36,6.36,0,0,0-2.44-.48,6.27,6.27,0,0,0-2.43.48,6,6,0,0,0-2,1.35,6.34,6.34,0,0,0-1.36,2,6.27,6.27,0,0,0,0,4.86,6.48,6.48,0,0,0,1.36,2,6.35,6.35,0,0,0,2,1.36,6.24,6.24,0,0,0,5.37-.25A6.57,6.57,0,0,0,278.07,14.33Zm-8.5-7.47a5,5,0,0,1,6.6,0A5.65,5.65,0,0,1,278,10.18H267.75A5.71,5.71,0,0,1,269.57,6.86Z"/><path class="cls-1" d="M290,12.18a3.53,3.53,0,0,1-.3,1.43,3.94,3.94,0,0,1-2.05,2,3.62,3.62,0,0,1-1.45.3,3.56,3.56,0,0,1-2.67-1.13,3.9,3.9,0,0,1-.82-1.19,3.53,3.53,0,0,1-.3-1.43V4.46h-1.18v7.72a4.56,4.56,0,0,0,.39,1.86,5.07,5.07,0,0,0,1.06,1.56,4.91,4.91,0,0,0,3.52,1.45,4.75,4.75,0,0,0,2-.42A5.19,5.19,0,0,0,290,15.1v1.73h1.15V4.46H290Z"/><path class="cls-1" d="M294.76,9.33a3.39,3.39,0,0,1,.53-1.87,3.84,3.84,0,0,1,3.27-1.85A3.69,3.69,0,0,1,300,5.9a3.6,3.6,0,0,1,1.24.81,3.74,3.74,0,0,1,.81,1.2,3.61,3.61,0,0,1,.29,1.42V17h1.17V9.33a4.64,4.64,0,0,0-.39-1.87,5,5,0,0,0-1.06-1.58,5,5,0,0,0-5.61-1,4.21,4.21,0,0,0-1.71,1.58V4.81h-1.15V17h1.15Z"/><path class="cls-1" d="M307.38,15.23a6.31,6.31,0,0,0,2,1.36,6.26,6.26,0,0,0,5.38-.25,6.63,6.63,0,0,0,2.24-2l-1-.55a5.37,5.37,0,0,1-1.82,1.57,4.89,4.89,0,0,1-2.37.58,4.8,4.8,0,0,1-3.3-1.25,5.72,5.72,0,0,1-1.83-3.32h11.42l0-.4a6.59,6.59,0,0,0-.54-2.53,6.64,6.64,0,0,0-1.34-2.12,5.84,5.84,0,0,0-2-1.35,6.27,6.27,0,0,0-2.43-.48,6.36,6.36,0,0,0-2.44.48,6,6,0,0,0-2,1.35,6.18,6.18,0,0,0-1.36,2,6.27,6.27,0,0,0,0,4.86A6.31,6.31,0,0,0,307.38,15.23Zm1.15-8.37a5,5,0,0,1,6.6,0A5.76,5.76,0,0,1,317,10.18H306.7A5.72,5.72,0,0,1,308.53,6.86Z"/><path class="cls-1" d="M328.87,14.58a8.45,8.45,0,0,0,2.71,1.82,8.15,8.15,0,0,0,3.26.65A8.38,8.38,0,0,0,341,14.36l-.85-.73a7.25,7.25,0,0,1-2.42,1.69,7.33,7.33,0,0,1-2.9.58,7.09,7.09,0,0,1-2.81-.56,7.16,7.16,0,0,1-2.34-1.56,7.12,7.12,0,0,1-2.14-5.12,7,7,0,0,1,.56-2.8,7.13,7.13,0,0,1,1.58-2.33A7.49,7.49,0,0,1,332,2a7.38,7.38,0,0,1,5.71,0,7.11,7.11,0,0,1,2.42,1.69L341,3a8.13,8.13,0,0,0-2.8-2,8.51,8.51,0,0,0-3.4-.69,8.4,8.4,0,0,0-7.79,5.16,8.26,8.26,0,0,0,0,6.47A8.15,8.15,0,0,0,328.87,14.58Z"/><path class="cls-1" d="M344.46,9.33a3.45,3.45,0,0,1,.3-1.42,3.94,3.94,0,0,1,.82-1.2,3.63,3.63,0,0,1,2.68-1.08,3.83,3.83,0,0,1,1.45.29,4,4,0,0,1,1.22.79,3.74,3.74,0,0,1,.81,1.2A3.44,3.44,0,0,1,352,9.33V17h1.18V9.33a4.68,4.68,0,0,0-.38-1.85,5.15,5.15,0,0,0-1.07-1.57,4.67,4.67,0,0,0-1.58-1,5.12,5.12,0,0,0-1.92-.36,4.29,4.29,0,0,0-1.91.44,6.52,6.52,0,0,0-1.89,1.58V.29h-1.17V17h1.17Z"/><path class="cls-1" d="M357.3,15.25a6.27,6.27,0,0,0,4.45,1.83,5.83,5.83,0,0,0,2.94-.73,6.23,6.23,0,0,0,2.23-2.27V17h1.15V4.81h-1.15V7.28a5,5,0,0,0-2.06-2.07,6.46,6.46,0,0,0-3.11-.7,6.3,6.3,0,0,0-2.43.47,6.39,6.39,0,0,0-2,1.35,6.57,6.57,0,0,0-1.36,2,6.37,6.37,0,0,0-.49,2.44,6.28,6.28,0,0,0,.49,2.43A6,6,0,0,0,357.3,15.25ZM357,8.79a5.12,5.12,0,0,1,1.1-1.66,5.23,5.23,0,0,1,3.67-1.5,5.21,5.21,0,0,1,2,.4,5.36,5.36,0,0,1,1.65,1.1,5.12,5.12,0,0,1,1.1,1.66,5.2,5.2,0,0,1,.4,2,5.08,5.08,0,0,1-.41,2,5.39,5.39,0,0,1-1.11,1.64,5.18,5.18,0,0,1-3.63,1.5,5.11,5.11,0,0,1-2-.4,5,5,0,0,1-1.66-1.1,5.13,5.13,0,0,1-1.5-3.64A5.2,5.2,0,0,1,357,8.79Z"/><path class="cls-1" d="M372.2,9a3.33,3.33,0,0,1,.26-1.31,3.3,3.3,0,0,1,1.79-1.85,3.1,3.1,0,0,1,1.24-.26,3.34,3.34,0,0,1,1.29.26,3.4,3.4,0,0,1,1.06.71,3.47,3.47,0,0,1,.72,1.07,3.25,3.25,0,0,1,.26,1.28v8h1.12v-8a3.09,3.09,0,0,1,.27-1.28,3.28,3.28,0,0,1,.71-1.07,3.3,3.3,0,0,1,3.62-.71,3.47,3.47,0,0,1,1,.71,3.65,3.65,0,0,1,.71,1.1,3.25,3.25,0,0,1,.26,1.3v8h1.13V9a4.6,4.6,0,0,0-.34-1.76,4.22,4.22,0,0,0-1-1.46,4.29,4.29,0,0,0-1.43-1,4.18,4.18,0,0,0-1.69-.34,4.77,4.77,0,0,0-3.9,2.25,4.67,4.67,0,0,0-3.88-2.25,4.08,4.08,0,0,0-1.83.47,3.32,3.32,0,0,0-1.46,1.48V4.81h-1.13V17h1.13Z"/><path class="cls-1" d="M399,16.58a6.22,6.22,0,0,0,2-1.35,6.43,6.43,0,0,0,1.36-2,6.07,6.07,0,0,0,0-4.78,6.67,6.67,0,0,0-1.36-2,6.55,6.55,0,0,0-2-1.35,6.24,6.24,0,0,0-2.45-.5,6.77,6.77,0,0,0-3.11.67,5.16,5.16,0,0,0-2.13,2.16v-7h-1.1V17h1.1V14.36a4.76,4.76,0,0,0,2.15,2.09,7.1,7.1,0,0,0,3.09.63A6.24,6.24,0,0,0,399,16.58Zm-6.12-2.13a5.06,5.06,0,0,1-1.11-1.64,4.85,4.85,0,0,1-.41-2,4.72,4.72,0,0,1,.41-2,5,5,0,0,1,1.14-1.64,5.52,5.52,0,0,1,1.66-1.1,5.07,5.07,0,0,1,2-.4,5.21,5.21,0,0,1,2,.4,5.13,5.13,0,0,1,1.65,1.1,5.39,5.39,0,0,1,1.13,1.65,5,5,0,0,1,.4,1.95,4.86,4.86,0,0,1-.42,2,5.06,5.06,0,0,1-1.11,1.64,4.82,4.82,0,0,1-1.65,1.1,5,5,0,0,1-2,.4,5.11,5.11,0,0,1-2-.4A5,5,0,0,1,392.86,14.45Z"/><path class="cls-1" d="M410.25,4.36a4.61,4.61,0,0,0-2,.42,4.73,4.73,0,0,0-2,1.67,4.12,4.12,0,0,0-.72,2.38V17h1.18V8.83a3.15,3.15,0,0,1,.27-1.27,3.7,3.7,0,0,1,.75-1.1,3.45,3.45,0,0,1,2.45-1,3.94,3.94,0,0,1,1.23.23L412.73,5A4.66,4.66,0,0,0,410.25,4.36Z"/><path class="cls-1" d="M425.09,11a6.57,6.57,0,0,0-.53-2.53,6.82,6.82,0,0,0-1.34-2.12,6,6,0,0,0-2-1.35,6.36,6.36,0,0,0-2.44-.48,6.27,6.27,0,0,0-2.43.48,5.84,5.84,0,0,0-2,1.35,6.35,6.35,0,0,0-1.37,6.9,6.34,6.34,0,0,0,1.37,2,6.2,6.2,0,0,0,2,1.36,6.24,6.24,0,0,0,5.37-.25,6.57,6.57,0,0,0,2.25-2l-1-.55a5.46,5.46,0,0,1-1.82,1.57,4.9,4.9,0,0,1-2.38.58,4.83,4.83,0,0,1-3.3-1.25,5.76,5.76,0,0,1-1.82-3.32h11.42Zm-11.44-.78a5.76,5.76,0,0,1,1.82-3.32,5,5,0,0,1,6.6,0,5.72,5.72,0,0,1,1.83,3.32Z"/><path class="cls-1" d="M271.42,33.68a5.22,5.22,0,0,0-2.13-2.16,6.78,6.78,0,0,0-3.12-.66,6.06,6.06,0,0,0-2.44.5,6.22,6.22,0,0,0-2,1.35,6.43,6.43,0,0,0-1.36,2,6,6,0,0,0,0,4.77,6.43,6.43,0,0,0,1.36,2,6.44,6.44,0,0,0,4.47,1.85,7.26,7.26,0,0,0,3.1-.62,4.83,4.83,0,0,0,2.15-2.1v2.6h1.1V26.63h-1.1Zm-.46,5.4a5.38,5.38,0,0,1-1.11,1.65,5.23,5.23,0,0,1-3.68,1.5,5.2,5.2,0,0,1-2-.4,5.13,5.13,0,0,1-1.65-1.1,5.21,5.21,0,0,1-1.11-1.65,4.86,4.86,0,0,1-.42-2,5,5,0,0,1,.4-2,5.23,5.23,0,0,1,1.13-1.64,4.82,4.82,0,0,1,1.65-1.1,5,5,0,0,1,2-.4,4.91,4.91,0,0,1,2,.4,5.17,5.17,0,0,1,1.66,1.1A4.9,4.9,0,0,1,271,35.14a4.75,4.75,0,0,1,.41,2A4.85,4.85,0,0,1,271,39.08Z"/><path class="cls-1" d="M285.51,32.58a5.84,5.84,0,0,0-2-1.35,6.26,6.26,0,0,0-2.43-.47,6.35,6.35,0,0,0-2.44.47,6,6,0,0,0-2,1.35,6.18,6.18,0,0,0-1.36,2,6.27,6.27,0,0,0,0,4.86,6.35,6.35,0,0,0,3.38,3.38,6.1,6.1,0,0,0,2.43.49,6,6,0,0,0,2.95-.74,6.45,6.45,0,0,0,2.24-2l-1-.55a5.51,5.51,0,0,1-1.82,1.58,5,5,0,0,1-2.37.57,4.8,4.8,0,0,1-3.3-1.25,5.72,5.72,0,0,1-1.83-3.32h11.42l0-.4a7.25,7.25,0,0,0-1.88-4.65Zm-9.57,3.87a5.72,5.72,0,0,1,1.83-3.32,5,5,0,0,1,6.6,0,5.76,5.76,0,0,1,1.82,3.32Z"/><path class="cls-1" d="M299.55,31.24a6.66,6.66,0,0,0-2,1.37,6.21,6.21,0,0,0-1.88,4.44,6.21,6.21,0,0,0,1.88,4.45,6.62,6.62,0,0,0,2,1.36,6,6,0,0,0,2.43.49,6.33,6.33,0,0,0,2.49-.5,6.44,6.44,0,0,0,2.06-1.42l-1-.6a4.75,4.75,0,0,1-1.6,1,5.37,5.37,0,0,1-1.93.35,5,5,0,0,1-2-.4,5.59,5.59,0,0,1-1.66-1.1,5,5,0,0,1-1.13-5.65,5.11,5.11,0,0,1,1.13-1.65A5.56,5.56,0,0,1,300,32.31a5,5,0,0,1,2-.4,5.17,5.17,0,0,1,1.93.35,4.75,4.75,0,0,1,1.6,1l1-.6a6.29,6.29,0,0,0-2.06-1.42,6.42,6.42,0,0,0-4.92,0Z"/><path class="cls-1" d="M316.57,42.85a6.3,6.3,0,0,0,2.05-1.37,6.38,6.38,0,0,0,1.37-2,6.18,6.18,0,0,0,.48-2.42,6.52,6.52,0,0,0-.48-2.48,6.35,6.35,0,0,0-3.42-3.41,6.43,6.43,0,0,0-2.47-.48,6.18,6.18,0,0,0-2.42.48,6.4,6.4,0,0,0-3.9,5.89,6,6,0,0,0,.5,2.42,6.43,6.43,0,0,0,3.4,3.4,6,6,0,0,0,2.42.5A6.27,6.27,0,0,0,316.57,42.85Zm-6.12-2.15A5.3,5.3,0,0,1,309.32,39a4.92,4.92,0,0,1-.42-2,5.09,5.09,0,0,1,.42-2,5.3,5.3,0,0,1,2.79-2.82,5,5,0,0,1,2-.4,5.28,5.28,0,0,1,2,.4,4.94,4.94,0,0,1,1.67,1.13A5.57,5.57,0,0,1,318.91,35a5.25,5.25,0,0,1-2.78,6.84,5.3,5.3,0,0,1-2,.41,5,5,0,0,1-2-.41A5.53,5.53,0,0,1,310.45,40.7Z"/><path class="cls-1" d="M338,32a4.29,4.29,0,0,0-1.43-1,4.22,4.22,0,0,0-1.69-.34A4.77,4.77,0,0,0,331,33a4.67,4.67,0,0,0-3.88-2.25,4,4,0,0,0-1.83.48,3.25,3.25,0,0,0-1.46,1.47v-1.6h-1.13V43.23h1.13V35.3a3.33,3.33,0,0,1,.26-1.31,3.57,3.57,0,0,1,.71-1.11,3.67,3.67,0,0,1,1.07-.74,3.18,3.18,0,0,1,1.25-.26,3.34,3.34,0,0,1,1.29.26,3.41,3.41,0,0,1,1.78,1.78,3.29,3.29,0,0,1,.26,1.28v8h1.12v-8a3.29,3.29,0,0,1,.26-1.28,3.43,3.43,0,0,1,.72-1.06,3.28,3.28,0,0,1,3.62-.72A3.3,3.3,0,0,1,338,34a3.25,3.25,0,0,1,.26,1.3v8h1.13v-8a4.6,4.6,0,0,0-.34-1.76A4.31,4.31,0,0,0,338,32Z"/><path class="cls-1" d="M356.35,32.86a3.69,3.69,0,0,1,.72,1.09,3.43,3.43,0,0,1,.26,1.3v8h1.12v-8a4.78,4.78,0,0,0-.33-1.76,4.49,4.49,0,0,0-1-1.46,4.37,4.37,0,0,0-3.12-1.3,4.77,4.77,0,0,0-3.9,2.25,4.66,4.66,0,0,0-3.87-2.25,4,4,0,0,0-1.84.48A3.3,3.3,0,0,0,343,32.68v-1.6h-1.12V43.23H343V35.3a3.52,3.52,0,0,1,.26-1.31,3.79,3.79,0,0,1,.72-1.11,3.42,3.42,0,0,1,1.07-.74,3.18,3.18,0,0,1,1.25-.26,3.34,3.34,0,0,1,1.29.26,3.55,3.55,0,0,1,1.06.72,3.24,3.24,0,0,1,.71,1.06,3.12,3.12,0,0,1,.26,1.28v8h1.13v-8a3.12,3.12,0,0,1,.26-1.28,3.24,3.24,0,0,1,.71-1.06,3.2,3.2,0,0,1,2.35-1,3.17,3.17,0,0,1,1.27.26A3.5,3.5,0,0,1,356.35,32.86Z"/><path class="cls-1" d="M364.56,31.23a6,6,0,0,0-2,1.35,6.18,6.18,0,0,0-1.36,2,6.3,6.3,0,0,0,3.39,8.24,6,6,0,0,0,2.42.49,6,6,0,0,0,2.95-.74,6.57,6.57,0,0,0,2.25-2l-1-.55a5.54,5.54,0,0,1-1.83,1.58,4.94,4.94,0,0,1-2.37.57A4.8,4.8,0,0,1,363.7,41a5.65,5.65,0,0,1-1.82-3.32H373.3l0-.4a7.31,7.31,0,0,0-1.87-4.65,6,6,0,0,0-2-1.35,6.57,6.57,0,0,0-4.88,0Zm5.74,1.9a5.65,5.65,0,0,1,1.82,3.32H361.88a5.65,5.65,0,0,1,1.82-3.32,5,5,0,0,1,6.6,0Z"/><path class="cls-1" d="M380.22,30.63a4.49,4.49,0,0,0-2,.43,4.84,4.84,0,0,0-2,1.66,4.21,4.21,0,0,0-.71,2.38v8.13h1.17V35.1a3.2,3.2,0,0,1,.28-1.27,3.47,3.47,0,0,1,.75-1.1,3.42,3.42,0,0,1,2.45-1,3.9,3.9,0,0,1,1.22.22l1.25-.67A4.63,4.63,0,0,0,380.22,30.63Z"/><path class="cls-1" d="M385.14,33.4a5.43,5.43,0,0,1,1.66-1.09,5,5,0,0,1,2-.4,5.12,5.12,0,0,1,1.92.35,4.65,4.65,0,0,1,1.6,1l1-.6a6.29,6.29,0,0,0-2.06-1.42,6.45,6.45,0,0,0-4.93,0,6.61,6.61,0,0,0-2,1.37,5.91,5.91,0,0,0-1.38,2,6.18,6.18,0,0,0,0,4.87,6,6,0,0,0,1.38,2,6.58,6.58,0,0,0,2,1.36,6,6,0,0,0,2.44.49,6.33,6.33,0,0,0,2.49-.5,6.44,6.44,0,0,0,2.06-1.42l-1-.6a4.65,4.65,0,0,1-1.6,1,5.32,5.32,0,0,1-1.92.35,5,5,0,0,1-2-.4,5.46,5.46,0,0,1-1.66-1.1A5.08,5.08,0,0,1,384,35.05,5.3,5.3,0,0,1,385.14,33.4Z"/><path class="cls-1" d="M405.33,32.58a6,6,0,0,0-2-1.35,6.35,6.35,0,0,0-2.44-.47,6.26,6.26,0,0,0-2.43.47,6,6,0,0,0-2,1.35,6.34,6.34,0,0,0-1.36,2,6.39,6.39,0,0,0,0,4.86,6.48,6.48,0,0,0,1.36,2,6.35,6.35,0,0,0,2,1.36,6,6,0,0,0,2.42.49,6,6,0,0,0,2.95-.74,6.57,6.57,0,0,0,2.25-2l-1-.55a5.61,5.61,0,0,1-1.82,1.58,5,5,0,0,1-2.38.57,4.83,4.83,0,0,1-3.3-1.25,5.71,5.71,0,0,1-1.82-3.32h11.42l0-.4a6.57,6.57,0,0,0-.53-2.53A6.82,6.82,0,0,0,405.33,32.58Zm-9.57,3.87a5.71,5.71,0,0,1,1.82-3.32,5,5,0,0,1,6.6,0A5.72,5.72,0,0,1,406,36.45Z"/><path class="cls-1" d="M271.42,60a5.22,5.22,0,0,0-2.13-2.16,6.78,6.78,0,0,0-3.12-.66A6.44,6.44,0,0,0,261.7,59a6.43,6.43,0,0,0-1.36,2,6,6,0,0,0,0,4.77,6.43,6.43,0,0,0,1.36,2,6.22,6.22,0,0,0,2,1.35,6.06,6.06,0,0,0,2.44.5,7.26,7.26,0,0,0,3.1-.62,4.83,4.83,0,0,0,2.15-2.1v2.6h1.1V52.91h-1.1Zm-.46,5.4A5.38,5.38,0,0,1,269.85,67a5.12,5.12,0,0,1-1.66,1.1,5.31,5.31,0,0,1-2,.4,5.2,5.2,0,0,1-2-.4,5,5,0,0,1-1.65-1.1,5.21,5.21,0,0,1-1.11-1.65,4.81,4.81,0,0,1-.42-2,4.93,4.93,0,0,1,.4-2,5.16,5.16,0,0,1,1.13-1.65,4.82,4.82,0,0,1,1.65-1.1,5,5,0,0,1,2-.4,4.91,4.91,0,0,1,2,.4,5.17,5.17,0,0,1,1.66,1.1A4.9,4.9,0,0,1,271,61.41a4.94,4.94,0,0,1,0,3.94Z"/><path class="cls-1" d="M285.51,58.85a5.84,5.84,0,0,0-2-1.35,6.45,6.45,0,0,0-2.43-.47,6.54,6.54,0,0,0-2.44.47,6,6,0,0,0-2,1.35,6.29,6.29,0,0,0-1.36,2,6.15,6.15,0,0,0-.49,2.44,6.05,6.05,0,0,0,.49,2.42,6.2,6.2,0,0,0,1.36,2,6.34,6.34,0,0,0,2,1.37,6.27,6.27,0,0,0,2.43.48,6.08,6.08,0,0,0,2.95-.73,6.57,6.57,0,0,0,2.24-2l-1-.55a5.4,5.4,0,0,1-1.82,1.58,5,5,0,0,1-2.37.57,4.75,4.75,0,0,1-3.3-1.25,5.72,5.72,0,0,1-1.83-3.32h11.42l0-.4a7.3,7.3,0,0,0-1.88-4.65Zm-9.57,3.88a5.75,5.75,0,0,1,1.83-3.33,5,5,0,0,1,6.6,0,5.79,5.79,0,0,1,1.82,3.33Z"/><path class="cls-1" d="M311.68,61.23a8.56,8.56,0,0,0-2.49-6,8.5,8.5,0,0,0-2.71-1.82,8.43,8.43,0,0,0-6.54,0,8.53,8.53,0,0,0-2.69,1.82,8.19,8.19,0,0,0-1.83,2.73,8.5,8.5,0,0,0-.66,3.31,8.36,8.36,0,0,0,.65,3.26,8.15,8.15,0,0,0,1.84,2.7A8.77,8.77,0,0,0,300,69a8.13,8.13,0,0,0,3.24.66h8.47v-2.5h-2.47A8.2,8.2,0,0,0,311,64.63,8.39,8.39,0,0,0,311.68,61.23Zm-2.53,0a6,6,0,0,1-.45,2.29,5.9,5.9,0,0,1-1.29,1.92,5.82,5.82,0,0,1-1.92,1.28,6,6,0,0,1-4.57,0,5.94,5.94,0,0,1-3.21-3.2,6,6,0,0,1-.45-2.29,6.18,6.18,0,0,1,.46-2.34A5.93,5.93,0,0,1,299,57a5.85,5.85,0,0,1,1.92-1.29,6,6,0,0,1,4.57,0,5.94,5.94,0,0,1,3.2,3.21A6,6,0,0,1,309.15,61.23Z"/><path class="cls-1" d="M321.17,64.58a2.55,2.55,0,0,1-.79,1.88,2.49,2.49,0,0,1-.86.57,2.38,2.38,0,0,1-1,.22,2.57,2.57,0,0,1-1.86-.79,2.59,2.59,0,0,1-.79-1.88v-7.7h-2.45v7.7a5.11,5.11,0,0,0,.4,2,5.45,5.45,0,0,0,1.09,1.65,5.3,5.3,0,0,0,1.65,1.12,5,5,0,0,0,2,.39,3.77,3.77,0,0,0,1.57-.36,4.34,4.34,0,0,0,1.08-.69v.88h2.43V56.88h-2.43Z"/><path class="cls-1" d="M334.25,57.39a6.62,6.62,0,0,0-5,0,5.91,5.91,0,0,0-2,1.37,6.66,6.66,0,0,0-1.39,2.08,6.44,6.44,0,0,0-.5,2.49,6.3,6.3,0,0,0,.5,2.47,6.46,6.46,0,0,0,1.39,2.06,6.57,6.57,0,0,0,2.06,1.39,6.32,6.32,0,0,0,2.48.5,6.06,6.06,0,0,0,3.18-.87,7.21,7.21,0,0,0,2.45-2.46l.06-.11-2.11-1.25-.06.1a4.09,4.09,0,0,1-3.52,2.09,3.73,3.73,0,0,1-2.37-.8,4.41,4.41,0,0,1-1-1.07,2.21,2.21,0,0,1-.41-1h10.1v-.11a6.79,6.79,0,0,0,.08-1,6.21,6.21,0,0,0-1.89-4.48A5.8,5.8,0,0,0,334.25,57.39ZM328,62.15a2.44,2.44,0,0,1,.51-1.36,3.77,3.77,0,0,1,1.39-1.15,4.19,4.19,0,0,1,3.74,0A3.94,3.94,0,0,1,335,60.79a2.6,2.6,0,0,1,.51,1.36Z"/><polygon class="cls-1" points="333.79 52.23 331.57 52.23 330.58 55.93 332.5 55.93 333.79 52.23"/><path class="cls-1" d="M351.22,58.62a6.34,6.34,0,0,0-2.06-1.41,6.53,6.53,0,0,0-2.5-.51,5.23,5.23,0,0,0-2.57.62,5.35,5.35,0,0,0-1.45,1.12V52.78h-2.45V69.62h2.45V67.9a5.9,5.9,0,0,0,1.7,1.28,5,5,0,0,0,2.32.57,6.41,6.41,0,0,0,4.56-1.91,6.86,6.86,0,0,0,1.39-2.1,6.55,6.55,0,0,0,0-5A6.75,6.75,0,0,0,351.22,58.62Zm-.61,4.61a4,4,0,0,1-1.17,2.83,3.6,3.6,0,0,1-1.26.87,3.87,3.87,0,0,1-3.06,0,3.64,3.64,0,0,1-1.27-.87,4,4,0,0,1-1.16-2.83,3.89,3.89,0,0,1,.31-1.54,4.43,4.43,0,0,1,.85-1.3,3.62,3.62,0,0,1,1.27-.86h0a4.06,4.06,0,0,1,1.54-.3,4,4,0,0,1,1.53.3,3.63,3.63,0,0,1,1.25.86,4.24,4.24,0,0,1,.85,1.3A3.9,3.9,0,0,1,350.61,63.23Z"/><path class="cls-1" d="M363.26,57.39a6.62,6.62,0,0,0-5,0,6.1,6.1,0,0,0-2.05,1.37,6.66,6.66,0,0,0-1.39,2.08,6.43,6.43,0,0,0-.49,2.49,6.29,6.29,0,0,0,.49,2.47,6.49,6.49,0,0,0,3.46,3.45,6.23,6.23,0,0,0,2.47.5,6.12,6.12,0,0,0,3.19-.87,7.27,7.27,0,0,0,2.44-2.46l.06-.11-2.11-1.25-.06.1a4.09,4.09,0,0,1-3.52,2.09,3.73,3.73,0,0,1-2.37-.8,4.41,4.41,0,0,1-1-1.07,2.32,2.32,0,0,1-.41-1h10.1v-.11a6.79,6.79,0,0,0,.08-1,6.24,6.24,0,0,0-1.88-4.48A5.93,5.93,0,0,0,363.26,57.39ZM357,62.15a2.44,2.44,0,0,1,.51-1.36,3.77,3.77,0,0,1,1.39-1.15,4.19,4.19,0,0,1,3.74,0A3.94,3.94,0,0,1,364,60.79a2.6,2.6,0,0,1,.51,1.36Z"/><path class="cls-1" d="M372.31,60.54a4,4,0,0,1,2.76-1.14,4,4,0,0,1,3,1.34l.07.07,2.16-1.25-.1-.11a6.37,6.37,0,0,0-5.09-2.55,6.22,6.22,0,0,0-2.46.5,6.44,6.44,0,0,0-3.42,3.44,6.55,6.55,0,0,0,0,5,6.36,6.36,0,0,0,1.37,2,6.53,6.53,0,0,0,2.05,1.39,6.22,6.22,0,0,0,2.46.5,6.37,6.37,0,0,0,5.09-2.55l.1-.11-2.16-1.25-.07.07a4,4,0,0,1-3,1.34,3.84,3.84,0,0,1-1.51-.3,4,4,0,0,1-1.25-.84,4.11,4.11,0,0,1-.85-1.26,3.76,3.76,0,0,1-.31-1.52,3.81,3.81,0,0,1,.31-1.53A4.06,4.06,0,0,1,372.31,60.54Z"/></g></g></svg>